<?xml version="1.0" encoding="UTF-8" standalone="no"?>
<svg
	width="100%"
	viewBox="0 0 680 680"
	role="img"
	version="1.1"
	id="svg14"
	xmlns="http://www.w3.org/2000/svg"
	xmlns:svg="http://www.w3.org/2000/svg">
	<defs id="defs9">
		<clipPath id="icon-clip">
			<rect x="90" y="90" width="500" height="500" rx="110" id="rect1" />
		</clipPath>
		<linearGradient id="bg-grad" x1="0" y1="0" x2="0" y2="1">
			<stop offset="0%" stop-color="#3a7d44" id="stop1" />
			<stop offset="100%" stop-color="#1a4a25" id="stop2" />
		</linearGradient>
		<linearGradient id="fill-grad" x1="0" y1="0" x2="0" y2="1">
			<stop offset="0%" stop-color="#b4d48e" stop-opacity="0.9" id="stop3" />
			<stop offset="100%" stop-color="#7ab25a" stop-opacity="0.35" id="stop4" />
		</linearGradient>
		<linearGradient id="slope-grad" x1="0" y1="0" x2="1" y2="0">
			<stop offset="0%" stop-color="#b4d48e" id="stop5" />
			<stop offset="35%" stop-color="#fefe8d" id="stop6" />
			<stop offset="60%" stop-color="#f0926d" id="stop7" />
			<stop offset="85%" stop-color="#d76260" id="stop8" />
			<stop offset="100%" stop-color="#905351" id="stop9" />
		</linearGradient>
	</defs>
	<rect x="90" y="90" width="500" height="500" rx="110" fill="url(#bg-grad)" style="stroke:none;color:rgb(11, 11, 11);stroke-width:1px;stroke-linecap:butt;stroke-linejoin:miter;opacity:1;font-family:sans-serif;font-size:16px;font-weight:400;text-anchor:start;dominant-baseline:auto" id="rect9" />
	<path d="M90,590 L90,420 C140,420 160,310 230,280 C270,262 285,295 340,240 C395,185 415,255 460,270 C510,287 530,360 590,360 L590,590 Z" fill="#2a6332" clip-path="url(#icon-clip)" style="fill:rgb(42, 99, 50);stroke:none;color:rgb(11, 11, 11);stroke-width:1px;stroke-linecap:butt;stroke-linejoin:miter;opacity:1;font-family:sans-serif;font-size:16px;font-weight:400;text-anchor:start;dominant-baseline:auto" id="path9" />
	<line x1="90" y1="380" x2="590" y2="380" stroke="white" stroke-width="1" opacity="0.12" clip-path="url(#icon-clip)" style="fill:rgb(0, 0, 0);stroke:rgb(255, 255, 255);color:rgb(11, 11, 11);stroke-width:5;stroke-linecap:butt;stroke-linejoin:miter;opacity:0.12;font-family:sans-serif;font-size:16px;font-weight:400;text-anchor:start;dominant-baseline:auto;stroke-dasharray:none" id="line9" />
	<line x1="90" y1="460" x2="590" y2="460" stroke="white" stroke-width="1" opacity="0.12" clip-path="url(#icon-clip)" style="fill:rgb(0, 0, 0);stroke:rgb(255, 255, 255);color:rgb(11, 11, 11);stroke-width:5;stroke-linecap:butt;stroke-linejoin:miter;opacity:0.12;font-family:sans-serif;font-size:16px;font-weight:400;text-anchor:start;dominant-baseline:auto;stroke-dasharray:none" id="line10" />
	<line x1="90" y1="540" x2="590" y2="540" stroke="white" stroke-width="1" opacity="0.12" clip-path="url(#icon-clip)" style="color:#0b0b0b;font-weight:400;font-size:16px;font-family:sans-serif;dominant-baseline:auto;text-anchor:start;opacity:0.12;fill:#000000;stroke:#ffffff;stroke-width:5;stroke-linecap:butt;stroke-linejoin:miter;stroke-dasharray:none" id="line11" transform="translate(0,5.05)" />
	<path d="M90,555 C130,555 150,440 193,412 C218,393 243,418 273,390 C298,365 320,330 350,300 C374,275 393,308 417,296 C441,284 458,315 487,337 C515,357 545,350 590,370 L590,590 L90,590 Z" fill="url(#fill-grad)" clip-path="url(#icon-clip)" style="stroke:none;color:rgb(11, 11, 11);stroke-width:1px;stroke-linecap:butt;stroke-linejoin:miter;opacity:1;font-family:sans-serif;font-size:16px;font-weight:400;text-anchor:start;dominant-baseline:auto" id="path11" />
	<path d="M90,555 C130,555 150,440 193,412 C218,393 243,418 273,390 C298,365 320,330 350,300 C374,275 393,308 417,296 C441,284 458,315 487,337 C515,357 545,350 590,370" fill="none" stroke="url(#slope-grad)" stroke-width="16" stroke-linecap="round" stroke-linejoin="round" clip-path="url(#icon-clip)" style="fill:none;color:rgb(11, 11, 11);stroke-width:25;stroke-linecap:round;stroke-linejoin:round;opacity:1;font-family:sans-serif;font-size:16px;font-weight:400;text-anchor:start;dominant-baseline:auto;stroke-dasharray:none" id="path12" />
	<g id="g15" transform="matrix(1.1363636,0,0,1.1363636,-42.584416,-47.194805)" style="display:none">
		<circle cx="350" cy="300" r="22" fill="white" opacity="0.95" clip-path="url(#icon-clip)" style="color:#0b0b0b;font-weight:400;font-size:16px;font-family:sans-serif;dominant-baseline:auto;text-anchor:start;opacity:0.95;fill:#ffffff;stroke:none;stroke-width:1px;stroke-linecap:butt;stroke-linejoin:miter" id="circle12" />
		<circle cx="350" cy="300" r="13" fill="#e8574a" clip-path="url(#icon-clip)" style="color:#0b0b0b;font-weight:400;font-size:16px;font-family:sans-serif;dominant-baseline:auto;text-anchor:start;opacity:1;fill:#e8574a;stroke:none;stroke-width:1px;stroke-linecap:butt;stroke-linejoin:miter" id="circle13" />
	</g>
	<g id="g14" transform="matrix(1.6515784,0,0,1.6515784,-365.05243,-78.211454)">
		<path d="m 350,148 c -32,0 -60,28 -60,62 0,44 60,100 60,100 0,0 60,-56 60,-100 0,-34 -28,-62 -60,-62 z" fill="#e8574a" clip-path="url(#icon-clip)" style="color:#0b0b0b;font-weight:400;font-size:16px;font-family:sans-serif;dominant-baseline:auto;text-anchor:start;opacity:1;fill:#e8574a;stroke:none;stroke-width:1px;stroke-linecap:butt;stroke-linejoin:miter" id="path13" />
		<circle cx="350" cy="210" r="22" fill="white" opacity="0.9" clip-path="url(#icon-clip)" style="color:#0b0b0b;font-weight:400;font-size:16px;font-family:sans-serif;dominant-baseline:auto;text-anchor:start;opacity:0.9;fill:#ffffff;stroke:none;stroke-width:1px;stroke-linecap:butt;stroke-linejoin:miter" id="circle14" />
	</g>
	<rect x="90" y="90" width="500" height="500" rx="110" fill="none" stroke="white" stroke-width="1.5" opacity="0.15" style="fill:none;stroke:rgb(255, 255, 255);color:rgb(11, 11, 11);stroke-width:1.5px;stroke-linecap:butt;stroke-linejoin:miter;opacity:0.15;font-family:sans-serif;font-size:16px;font-weight:400;text-anchor:start;dominant-baseline:auto" id="rect14" />
</svg>
